{"asset":{"generator":"Khronos glTF Blender I/O v4.4.56","version":"2.0"},"extensionsUsed":["KHR_texture_transform"],"extensionsRequired":["KHR_texture_transform"],"scene":0,"scenes":[{"name":"Scene","nodes":[0]}],"nodes":[{"mesh":0,"name":"tree_small_02_LOD0"}],"materials":[{"doubleSided":true,"name":"tree_small_02_branches","normalTexture":{"extensions":{"KHR_texture_transform":{"offset":[0,0.40000009536743164],"scale":[3,0.5999999046325684]}},"index":0,"texCoord":0},"pbrMetallicRoughness":{"baseColorTexture":{"extensions":{"KHR_texture_transform":{"offset":[0,0.40000009536743164],"scale":[3,0.5999999046325684]}},"index":1,"texCoord":0},"metallicFactor":0,"metallicRoughnessTexture":{"extensions":{"KHR_texture_transform":{"offset":[0,0.40000009536743164],"scale":[3,0.5999999046325684]}},"index":2,"texCoord":0}}},{"alphaMode":"MASK","doubleSided":true,"name":"tree_small_02_leaves","normalTexture":{"index":3},"pbrMetallicRoughness":{"baseColorTexture":{"index":4},"metallicFactor":0,"metallicRoughnessTexture":{"index":5}},"alphaCutoff":0.35},{"doubleSided":true,"name":"tree_small_02_trunk","normalTexture":{"index":6},"pbrMetallicRoughness":{"baseColorTexture":{"index":7},"metallicFactor":0,"metallicRoughnessTexture":{"index":8}}}],"meshes":[{"name":"BezierCurve.002","primitives":[{"attributes":{"POSITION":1,"NORMAL":2,"TEXCOORD_0":3},"indices":0,"material":0},{"attributes":{"POSITION":5,"NORMAL":6,"TEXCOORD_0":7,"TEXCOORD_1":8},"indices":4,"material":1},{"attributes":{"POSITION":10,"NORMAL":11,"TEXCOORD_0":12,"TEXCOORD_1":13},"indices":9,"material":2}]}],"textures":[{"sampler":0,"source":0},{"sampler":0,"source":1},{"sampler":0,"source":2},{"sampler":0,"source":3},{"sampler":0,"source":4},{"sampler":0,"source":5},{"sampler":0,"source":6},{"sampler":0,"source":7},{"sampler":0,"source":8}],"images":[{"mimeType":"image/jpeg","name":"tree_small_02_branch_nor_gl","uri":"textures/tree_small_02_branch_nor_gl_1k.jpg"},{"mimeType":"image/jpeg","name":"tree_small_02_branch_diff","uri":"textures/tree_small_02_branch_diff_1k.jpg"},{"mimeType":"image/jpeg","name":"tree_small_02_branch_rough","uri":"textures/tree_small_02_branch_arm_1k.jpg"},{"mimeType":"image/jpeg","name":"tree_small_02_leaves_nor_gl","uri":"textures/tree_small_02_leaves_nor_gl_1k.jpg"},{"mimeType":"image/jpeg","name":"tree_small_02_leaves_diff-tree_small_02_leaves_alpha","uri":"textures/tree_small_02_leaves_diff_1k.jpg"},{"mimeType":"image/jpeg","name":"tree_small_02_leaves_rough","uri":"textures/tree_small_02_leaves_arm_1k.jpg"},{"mimeType":"image/jpeg","name":"tree_small_02_nor_gl","uri":"textures/tree_small_02_nor_gl_1k.jpg"},{"mimeType":"image/jpeg","name":"tree_small_02_diff","uri":"textures/tree_small_02_diff_1k.jpg"},{"mimeType":"image/jpeg","name":"tree_small_02_rough","uri":"textures/tree_small_02_arm_1k.jpg"}],"accessors":[{"bufferView":0,"componentType":5125,"count":13191,"type":"SCALAR"},{"bufferView":1,"componentType":5126,"count":4707,"type":"VEC3","min":[-0.913867712020874,1.6758993864059448,-1.2630820274353027],"max":[1.4185543060302734,4.34970760345459,2.67238450050354]},{"bufferView":2,"componentType":5126,"count":4707,"type":"VEC3"},{"bufferView":3,"componentType":5126,"count":4707,"type":"VEC2"},{"bufferView":4,"componentType":5125,"count":319995,"type":"SCALAR"},{"bufferView":5,"componentType":5126,"count":132219,"type":"VEC3","min":[-1.3086811304092407,1.4933466911315918,-1.363386869430542],"max":[1.5989437103271484,4.526227951049805,2.873530626296997]},{"bufferView":6,"componentType":5126,"count":132219,"type":"VEC3"},{"bufferView":7,"componentType":5126,"count":132219,"type":"VEC2"},{"bufferView":8,"componentType":5126,"count":132219,"type":"VEC2"},{"bufferView":9,"componentType":5125,"count":4659,"type":"SCALAR"},{"bufferView":10,"componentType":5126,"count":1086,"type":"VEC3","min":[-0.7432189583778381,-0.024031998589634895,-0.39103877544403076],"max":[0.9274511933326721,3.652723550796509,1.9181606769561768]},{"bufferView":11,"componentType":5126,"count":1086,"type":"VEC3"},{"bufferView":12,"componentType":5126,"count":1086,"type":"VEC2"},{"bufferView":13,"componentType":5126,"count":1086,"type":"VEC2"}],"bufferViews":[{"buffer":0,"byteOffset":0,"byteLength":52764},{"buffer":0,"byteOffset":52764,"byteLength":56484},{"buffer":0,"byteOffset":109248,"byteLength":56484},{"buffer":0,"byteOffset":165732,"byteLength":37656},{"buffer":0,"byteOffset":203388,"byteLength":1279980},{"buffer":0,"byteOffset":1483368,"byteLength":1586628},{"buffer":0,"byteOffset":3069996,"byteLength":1586628},{"buffer":0,"byteOffset":4656624,"byteLength":1057752},{"buffer":0,"byteOffset":5714376,"byteLength":1057752},{"buffer":0,"byteOffset":6772128,"byteLength":18636},{"buffer":0,"byteOffset":6790764,"byteLength":13032},{"buffer":0,"byteOffset":6803796,"byteLength":13032},{"buffer":0,"byteOffset":6816828,"byteLength":8688},{"buffer":0,"byteOffset":6825516,"byteLength":8688}],"samplers":[{"magFilter":9729,"minFilter":9987}],"buffers":[{"uri":"tree_small_02-game.bin","byteLength":6834204}]}