{"asset":{"generator":"Khronos glTF Blender I/O v3.5.30","version":"2.0"},"extensionsUsed":["KHR_materials_specular","KHR_materials_ior"],"scene":0,"scenes":[{"name":"Scene","nodes":[0,1,2]}],"nodes":[{"mesh":0,"name":"fir_sapling_a"},{"mesh":1,"name":"fir_sapling_b","translation":[1,0,0]},{"mesh":2,"name":"fir_sapling_c","translation":[2,0,0]}],"materials":[{"doubleSided":true,"name":"fir_sapling_branches","normalTexture":{"index":0},"pbrMetallicRoughness":{"baseColorTexture":{"index":1},"metallicFactor":0,"metallicRoughnessTexture":{"index":2}}},{"doubleSided":true,"extensions":{"KHR_materials_specular":{"specularColorFactor":[0.05309009571385226,0.05309009571385226,0.05309009571385226]},"KHR_materials_ior":{"ior":1.4500000476837158}},"name":"fir_sapling_twigs","normalTexture":{"index":3},"pbrMetallicRoughness":{"baseColorTexture":{"index":4},"metallicFactor":0,"metallicRoughnessTexture":{"index":5}}}],"meshes":[{"name":"Cylinder","primitives":[{"attributes":{"POSITION":1,"TEXCOORD_0":2,"NORMAL":3},"indices":0,"material":0},{"attributes":{"POSITION":5,"TEXCOORD_0":6,"NORMAL":7},"indices":4,"material":1}]},{"name":"Cylinder.069","primitives":[{"attributes":{"POSITION":9,"TEXCOORD_0":10,"NORMAL":11},"indices":8,"material":0},{"attributes":{"POSITION":13,"TEXCOORD_0":14,"NORMAL":15},"indices":12,"material":1}]},{"name":"Cylinder.125","primitives":[{"attributes":{"POSITION":17,"TEXCOORD_0":18,"NORMAL":19},"indices":16,"material":0},{"attributes":{"POSITION":21,"TEXCOORD_0":22,"NORMAL":23},"indices":20,"material":1}]}],"textures":[{"sampler":0,"source":0},{"sampler":0,"source":1},{"sampler":0,"source":2},{"sampler":0,"source":3},{"sampler":0,"source":4},{"sampler":0,"source":5}],"images":[{"mimeType":"image/jpeg","name":"fir_sapling_branches_nor_gl","uri":"textures/fir_sapling_branches_nor_gl_1k.jpg"},{"mimeType":"image/jpeg","name":"fir_sapling_branches_diff","uri":"textures/fir_sapling_branches_diff_1k.jpg"},{"mimeType":"image/jpeg","name":"fir_sapling_branches_rough","uri":"textures/fir_sapling_branches_arm_1k.jpg"},{"mimeType":"image/jpeg","name":"fir_sapling_twigs_nor_gl","uri":"textures/fir_sapling_twigs_nor_gl_1k.jpg"},{"mimeType":"image/jpeg","name":"fir_sapling_twigs_diff","uri":"textures/fir_sapling_twigs_diff_1k.jpg"},{"mimeType":"image/jpeg","name":"fir_sapling_twigs_rough","uri":"textures/fir_sapling_twigs_arm_1k.jpg"}],"accessors":[{"bufferView":0,"componentType":5125,"count":1638,"type":"SCALAR"},{"bufferView":1,"componentType":5126,"count":388,"type":"VEC3","min":[-0.2750617563724518,-0.007901787757873535,-0.2920974791049957],"max":[0.2531963288784027,1.1080386638641357,0.26755601167678833]},{"bufferView":2,"componentType":5126,"count":388,"type":"VEC2"},{"bufferView":3,"componentType":5126,"count":388,"type":"VEC3"},{"bufferView":4,"componentType":5125,"count":25248,"type":"SCALAR"},{"bufferView":5,"componentType":5126,"count":21857,"type":"VEC3","min":[-0.4359058439731598,0.02356576919555664,-0.4126731753349304],"max":[0.42366576194763184,1.2927138805389404,0.36146098375320435]},{"bufferView":6,"componentType":5126,"count":21857,"type":"VEC2"},{"bufferView":7,"componentType":5126,"count":21857,"type":"VEC3"},{"bufferView":8,"componentType":5125,"count":1530,"type":"SCALAR"},{"bufferView":9,"componentType":5126,"count":360,"type":"VEC3","min":[-0.20628833770751953,-0.000009949319064617157,-0.29320934414863586],"max":[0.16692817211151123,0.8820494413375854,0.29256629943847656]},{"bufferView":10,"componentType":5126,"count":360,"type":"VEC2"},{"bufferView":11,"componentType":5126,"count":360,"type":"VEC3"},{"bufferView":12,"componentType":5125,"count":24234,"type":"SCALAR"},{"bufferView":13,"componentType":5126,"count":22545,"type":"VEC3","min":[-0.32576000690460205,0.03145759180188179,-0.4302639663219452],"max":[0.30983078479766846,0.9508204460144043,0.3816429078578949]},{"bufferView":14,"componentType":5126,"count":22545,"type":"VEC2"},{"bufferView":15,"componentType":5126,"count":22545,"type":"VEC3"},{"bufferView":16,"componentType":5125,"count":1152,"type":"SCALAR"},{"bufferView":17,"componentType":5126,"count":268,"type":"VEC3","min":[-0.2061556577682495,-0.00007270835340023041,-0.2918061912059784],"max":[0.20513582229614258,0.6192036271095276,0.158901646733284]},{"bufferView":18,"componentType":5126,"count":268,"type":"VEC2"},{"bufferView":19,"componentType":5126,"count":268,"type":"VEC3"},{"bufferView":20,"componentType":5125,"count":20007,"type":"SCALAR"},{"bufferView":21,"componentType":5126,"count":16640,"type":"VEC3","min":[-0.31046855449676514,0.03462404012680054,-0.3199334442615509],"max":[0.3055945634841919,0.6502388119697571,0.31352049112319946]},{"bufferView":22,"componentType":5126,"count":16640,"type":"VEC2"},{"bufferView":23,"componentType":5126,"count":16640,"type":"VEC3"}],"bufferViews":[{"buffer":0,"byteOffset":0,"byteLength":6552},{"buffer":0,"byteOffset":6552,"byteLength":4656},{"buffer":0,"byteOffset":11208,"byteLength":3104},{"buffer":0,"byteOffset":14312,"byteLength":4656},{"buffer":0,"byteOffset":18968,"byteLength":100992},{"buffer":0,"byteOffset":119960,"byteLength":262284},{"buffer":0,"byteOffset":382244,"byteLength":174856},{"buffer":0,"byteOffset":557100,"byteLength":262284},{"buffer":0,"byteOffset":819384,"byteLength":6120},{"buffer":0,"byteOffset":825504,"byteLength":4320},{"buffer":0,"byteOffset":829824,"byteLength":2880},{"buffer":0,"byteOffset":832704,"byteLength":4320},{"buffer":0,"byteOffset":837024,"byteLength":96936},{"buffer":0,"byteOffset":933960,"byteLength":270540},{"buffer":0,"byteOffset":1204500,"byteLength":180360},{"buffer":0,"byteOffset":1384860,"byteLength":270540},{"buffer":0,"byteOffset":1655400,"byteLength":4608},{"buffer":0,"byteOffset":1660008,"byteLength":3216},{"buffer":0,"byteOffset":1663224,"byteLength":2144},{"buffer":0,"byteOffset":1665368,"byteLength":3216},{"buffer":0,"byteOffset":1668584,"byteLength":80028},{"buffer":0,"byteOffset":1748612,"byteLength":199680},{"buffer":0,"byteOffset":1948292,"byteLength":133120},{"buffer":0,"byteOffset":2081412,"byteLength":199680}],"samplers":[{"magFilter":9729,"minFilter":9987}],"buffers":[{"uri":"fir_sapling-game.bin","byteLength":2281092}]}